<svg xmlns="http://www.w3.org/2000/svg" width="468.61" height="136.311" viewBox="0 0 468.61 136.311">
  <g id="Group_6656" data-name="Group 6656" transform="translate(-659.046 -71.278)">
    <g id="Group_2" data-name="Group 2" transform="translate(659.046 71.278)">
      <path id="Path_163" data-name="Path 163" d="M23.992,11.966h-3.2V-1.421H5.5V11.966H2.3V-17.2H5.5V-4.32H20.791V-17.2h3.2Zm30.087,0H50.52L47.357,3.681h-12.5L31.9,11.966H28.322L39.543-17.2H42.8ZM46.265.744,41.6-11.851a13.653,13.653,0,0,1-.433-1.92h-.094a9.236,9.236,0,0,1-.471,1.92L35.985.744ZM79.082,11.966H75.241l-4.9-8.209A10.48,10.48,0,0,0,67.5.3a5.434,5.434,0,0,0-2.994-.819H61.628V11.966h-3.2V-17.2h8.585A9.392,9.392,0,0,1,73.4-15.137a7.149,7.149,0,0,1,2.372,5.7q0,6.044-6.458,7.851v.075A5.842,5.842,0,0,1,71.3-.141,25.758,25.758,0,0,1,73.64,3.211ZM61.628-14.224V-3.492h4.763a6.117,6.117,0,0,0,4.33-1.553A5.366,5.366,0,0,0,72.4-9.178a4.674,4.674,0,0,0-1.525-3.709,6.55,6.55,0,0,0-4.443-1.337ZM83.186,11.966V-17.2h8.152a8.928,8.928,0,0,1,5.855,1.826,5.952,5.952,0,0,1,2.222,4.839,7.23,7.23,0,0,1-1.309,4.293,7.219,7.219,0,0,1-3.7,2.655v.075a7.123,7.123,0,0,1,4.7,2.184,6.93,6.93,0,0,1,1.779,4.933A7.634,7.634,0,0,1,98.22,9.64a9.865,9.865,0,0,1-6.731,2.325Zm3.2-26.189V-4.64h3.54a6.742,6.742,0,0,0,4.519-1.384,4.815,4.815,0,0,0,1.619-3.869q0-4.33-5.648-4.33Zm0,12.539V8.991h4.726a7.084,7.084,0,0,0,4.716-1.44,4.934,4.934,0,0,0,1.7-3.982q0-5.253-7.192-5.253Zm23.685,13.65h-3.2V-17.2h3.2Zm31.085,0h-4.029L121.915-11.588a13.539,13.539,0,0,1-.9-1.751H120.9a30.824,30.824,0,0,1,.151,3.916V11.966h-3.22V-17.2h4.255l14.8,23.309q1.13,1.807,1.186,2h.075a33.863,33.863,0,0,1-.207-4.387V-17.2h3.22Zm29.371-2a19.3,19.3,0,0,1-9.715,2.485A13.155,13.155,0,0,1,150.787,8.4,14.848,14.848,0,0,1,146.955-2.23a15.213,15.213,0,0,1,4.264-11.1,14.467,14.467,0,0,1,10.8-4.359,17.858,17.858,0,0,1,7.964,1.563v3.634a15.18,15.18,0,0,0-8.359-2.24,10.62,10.62,0,0,0-8.124,3.4,12.46,12.46,0,0,0-3.172,8.858q0,5.573,2.918,8.793a10.279,10.279,0,0,0,8.021,3.22,12.19,12.19,0,0,0,6.044-1.412V-.216h-6.42V-3.153h9.64Zm22.16,2H177.362V-17.2h14.667v2.937H180.563v9.922h10.6V-1.4h-10.6V9.028h12.125Zm26.321,0h-3.841l-4.9-8.209A10.48,10.48,0,0,0,207.43.3a5.434,5.434,0,0,0-2.994-.819h-2.881V11.966h-3.2V-17.2h8.585a9.392,9.392,0,0,1,6.383,2.062,7.148,7.148,0,0,1,2.372,5.7q0,6.044-6.458,7.851v.075a5.84,5.84,0,0,1,1.986,1.374,25.753,25.753,0,0,1,2.344,3.351ZM201.556-14.224V-3.492h4.763a6.117,6.117,0,0,0,4.33-1.553,5.366,5.366,0,0,0,1.676-4.133,4.673,4.673,0,0,0-1.525-3.709,6.55,6.55,0,0,0-4.443-1.337Z" transform="translate(-1.527 17.688)" fill="#90a6b7"/>
      <path id="Path_143" data-name="Path 143" d="M152.073-24.139a3.669,3.669,0,0,0-3.7-3.621,3.572,3.572,0,0,0-3.429,3.621V5.367L126.253-25.748a3.6,3.6,0,0,0-3.5-2.012h-.941a3.439,3.439,0,0,0-3.429,3.42V15.493a3.572,3.572,0,0,0,3.429,3.621,3.669,3.669,0,0,0,3.7-3.621V-14.281L144.408,17.1a3.416,3.416,0,0,0,3.362,2.012h.941a3.367,3.367,0,0,0,3.362-3.353Z" transform="translate(65.266 69.786)" fill="#fff"/>
      <path id="Subtraction_47" data-name="Subtraction 47" d="M57.067,47.411a17.6,17.6,0,0,1-12.053-4.551,15.648,15.648,0,0,1-3.732-5.265,17.162,17.162,0,0,1-1.38-6.881V3.822A3.572,3.572,0,0,1,43.32.2a3.66,3.66,0,0,1,3.689,3.621V30.714a9.741,9.741,0,0,0,10.058,9.857,9.741,9.741,0,0,0,10.059-9.857V15.99L74.235,27.9v2.809a17.153,17.153,0,0,1-1.381,6.881,15.646,15.646,0,0,1-3.732,5.265A17.6,17.6,0,0,1,57.067,47.411Zm-41.174,0a17.88,17.88,0,0,1-9.916-2.841A14.233,14.233,0,0,1,.335,37.553a3.805,3.805,0,0,1,.277-2.968,3,3,0,0,1,1.87-1.525,4.668,4.668,0,0,1,1.237-.176A3.562,3.562,0,0,1,7.108,35.34c1.267,2.591,3.412,5.566,8.785,5.566,5.778,0,8.291-3.256,8.718-6.3.234-3.738-2.294-6.335-7.309-7.509l-5.835-1.476c-4.421-1.195-7.6-3.1-9.455-5.675A11.1,11.1,0,0,1,0,13.211,12.27,12.27,0,0,1,4.568,3.638,16.661,16.661,0,0,1,15.222,0a16.509,16.509,0,0,1,8.751,2.129A12.629,12.629,0,0,1,29.1,8.584a3.543,3.543,0,0,1-.114,2.81,2.92,2.92,0,0,1-1.763,1.55,4.174,4.174,0,0,1-1.273.216,3.57,3.57,0,0,1-3.153-2.3,8.19,8.19,0,0,0-7.712-4.157c-3.923,0-7.98,2.383-7.98,6.37,0,3,2.018,4.971,6.169,6.035l5.9,1.542c4.536,1.207,7.9,3.1,10.009,5.616A11.181,11.181,0,0,1,31.652,35a12.669,12.669,0,0,1-4.812,8.919A17.294,17.294,0,0,1,15.893,47.411Z" transform="translate(246.779 41.59)" fill="#fff" stroke="rgba(0,0,0,0)" stroke-width="1"/>
      <path id="Path_146" data-name="Path 146" d="M135.108-24.139a3.664,3.664,0,0,0-3.688-3.621A3.568,3.568,0,0,0,128-24.139V15.493a3.568,3.568,0,0,0,3.42,3.621,3.664,3.664,0,0,0,3.688-3.621Zm20.99,3.353V15.493a3.568,3.568,0,0,0,3.42,3.621,3.664,3.664,0,0,0,3.688-3.621V-20.786h10.662A3.293,3.293,0,0,0,177.221-24a3.378,3.378,0,0,0-3.353-3.42H145.435A3.378,3.378,0,0,0,142.082-24a3.293,3.293,0,0,0,3.353,3.219Z" transform="translate(291.389 69.551)" fill="#fff"/>
      <path id="Subtraction_48" data-name="Subtraction 48" d="M42.643,46.875c-2.3,0-2.914-1.2-3.2-3.286V23.677L26.013,38.895a4.6,4.6,0,0,1-4.159,2.951A4.6,4.6,0,0,1,17.7,38.895l-9.3-19L0,1.822A3.285,3.285,0,0,1,2.877,0h.47A3.857,3.857,0,0,1,7.035,2.281l14.82,30.981,16.5-20.923a3.862,3.862,0,0,1,3.689-2.28h.469a3.564,3.564,0,0,1,3.353,3.353l-.2,29.507a3.961,3.961,0,0,1-.884,3.031A2.793,2.793,0,0,1,42.643,46.875Z" transform="translate(314.289 41.389)" fill="#0fd0d6"/>
      <path id="Subtraction_49" data-name="Subtraction 49" d="M4.023,30.77A3.67,3.67,0,0,1,0,27.486v-12.5L7.177,0,7.041,26.814a3.963,3.963,0,0,1-.884,3.032A2.793,2.793,0,0,1,4.023,30.77Z" transform="translate(397.779 57.492)" fill="#f2c305"/>
      <path id="Subtraction_51" data-name="Subtraction 51" d="M21.854,41.846A4.6,4.6,0,0,1,17.7,38.895l-9.3-19L0,1.823A3.284,3.284,0,0,1,2.877,0h.47A3.855,3.855,0,0,1,7.034,2.281l14.82,30.981L36.673,2.281A3.864,3.864,0,0,1,40.363,0h.47A3.393,3.393,0,0,1,43.9,2.221l-5.5,11.845.026-.519L26.012,38.895A4.6,4.6,0,0,1,21.854,41.846Z" transform="translate(360.836 41.79)" fill="#f2c305"/>
      <path id="Subtraction_53" data-name="Subtraction 53" d="M0,48.618H0V0A24.394,24.394,0,0,1,15.5,7.92a24.366,24.366,0,0,1,4.623,7.456,24.336,24.336,0,0,1,1.683,8.933,24.336,24.336,0,0,1-1.683,8.933A24.366,24.366,0,0,1,15.5,40.7,24.4,24.4,0,0,1,0,48.618Z" transform="translate(13.295 41.389)" fill="#12d7d6"/>
      <path id="Subtraction_54" data-name="Subtraction 54" d="M0,48.618H0V0A24.394,24.394,0,0,1,15.5,7.92a24.366,24.366,0,0,1,4.623,7.456,24.336,24.336,0,0,1,1.683,8.933,24.336,24.336,0,0,1-1.683,8.933A24.366,24.366,0,0,1,15.5,40.7,24.4,24.4,0,0,1,0,48.618Z" transform="translate(13.295 41.389)" fill="#12d7d6"/>
      <path id="Path_154" data-name="Path 154" d="M53.135,9.673c2.012,5.566,7.846,9.858,15.558,9.858,8.852,0,15.088-5.164,15.759-12.406C85.19.486,81.3-4.745,71.979-7.226l-5.9-1.542c-5.5-1.408-6.169-4.225-6.169-6.035,0-3.822,3.755-6.371,7.98-6.371A8.187,8.187,0,0,1,75.6-17.016c.939,1.811,2.347,2.749,4.426,2.079A3.291,3.291,0,0,0,81.9-19.3c-2.213-5.767-6.84-8.584-13.881-8.584-8.114,0-15.222,5.3-15.222,13.211,0,4.091,1.542,9.724,11.467,12.406L70.1-.788c4.292,1.006,7.578,3.219,7.309,7.511-.469,3.353-3.286,6.3-8.718,6.3-4.962,0-7.309-2.548-8.785-5.566a3.617,3.617,0,0,0-4.627-2.28A3.514,3.514,0,0,0,53.135,9.673Zm47.076-33.731a3.664,3.664,0,0,0-3.688-3.621,3.568,3.568,0,0,0-3.42,3.621V15.574a3.568,3.568,0,0,0,3.42,3.621,3.664,3.664,0,0,0,3.688-3.621Z" transform="translate(25.928 69.906)" fill="#fff"/>
      <path id="Path_160" data-name="Path 160" d="M85.625-24.009c0-2.014-1.989-3.751-4.558-3.751a4.058,4.058,0,0,0-4.227,3.751V17.04a4.058,4.058,0,0,0,4.227,3.751c2.569,0,4.558-1.736,4.558-3.751Z" transform="translate(-76.84 69.786)" fill="#fff"/>
      <path id="Path_157" data-name="Path 157" d="M8.785,3.751C8.785,1.736,6.8,0,4.227,0A4.058,4.058,0,0,0,0,3.751V21.329A4.058,4.058,0,0,0,4.227,25.08c2.569,0,4.558-1.736,4.558-3.751Z" transform="translate(67.7 82.262) rotate(90)" fill="#f2c305"/>
      <path id="Path_158" data-name="Path 158" d="M8.785,3.751C8.785,1.736,6.8,0,4.227,0A4.058,4.058,0,0,0,0,3.751V21.329A4.058,4.058,0,0,0,4.227,25.08c2.569,0,4.558-1.736,4.558-3.751Z" transform="translate(67.7 62.144) rotate(90)" fill="#f2c305"/>
      <path id="Path_159" data-name="Path 159" d="M8.785,3.751C8.785,1.736,6.8,0,4.227,0A4.058,4.058,0,0,0,0,3.751V21.329A4.058,4.058,0,0,0,4.227,25.08c2.569,0,4.558-1.736,4.558-3.751Z" transform="translate(67.7 41.389) rotate(90)" fill="#f2c305"/>
      <path id="Subtraction_52" data-name="Subtraction 52" d="M23.4,47.41A23.12,23.12,0,0,1,6.773,40.478,23.714,23.714,0,0,1,0,23.739a23.818,23.818,0,0,1,6.773-16.8A23.1,23.1,0,0,1,23.4,0,23.687,23.687,0,0,1,37.285,4.56a3.3,3.3,0,0,1,1.305,2.317,3.707,3.707,0,0,1-.97,2.914,3.078,3.078,0,0,1-2.331.968,4.654,4.654,0,0,1-2.7-.9A17.117,17.117,0,0,0,23.4,6.84c-9.138,0-16.3,7.423-16.3,16.9A16.541,16.541,0,0,0,22.667,40.554v6.656h4.109A27.908,27.908,0,0,1,23.4,47.41Z" transform="translate(133.813 41.389)" fill="#12d7d6" stroke="rgba(0,0,0,0)" stroke-width="1"/>
      <path id="Intersection_20" data-name="Intersection 20" d="M0,0H22.191V21.2Z" transform="translate(157.37 88.996) rotate(-90)" fill="#f2c305"/>
    </g>
    <path id="Path_16327" data-name="Path 16327" d="M65.67,28.342a11.653,11.653,0,0,1,.613-3.97,10.078,10.078,0,0,1,1.675-2.986,13.661,13.661,0,0,1,2.434-2.313q1.372-1.019,2.84-1.9,1.433-.88,2.684-1.813a8.372,8.372,0,0,0,2.02-2.1,4.826,4.826,0,0,0,.768-2.719,4.267,4.267,0,0,0-1.347-3.22A5.1,5.1,0,0,0,73.68,6.039,5.514,5.514,0,0,0,70.1,7.1a5.659,5.659,0,0,0-1.839,2.805l-2.175-.984a7,7,0,0,1,2.693-3.694A8.232,8.232,0,0,1,73.749,3.76a8.643,8.643,0,0,1,4.005.863,6.122,6.122,0,0,1,2.564,2.4,6.972,6.972,0,0,1,.889,3.556,6.819,6.819,0,0,1-.967,3.72A10.027,10.027,0,0,1,77.7,16.992a38.82,38.82,0,0,1-3.349,2.218A27.97,27.97,0,0,0,71.5,21.161,9.606,9.606,0,0,0,69.459,23.3a6.174,6.174,0,0,0-.993,2.676H81.414v2.365Zm29.261.414A6.763,6.763,0,0,1,91,27.669a7.808,7.808,0,0,1-2.52-2.909,14.386,14.386,0,0,1-1.347-4.04,24.755,24.755,0,0,1-.406-4.462,25.608,25.608,0,0,1,.224-3.3,18.326,18.326,0,0,1,.76-3.358,11.061,11.061,0,0,1,1.467-2.952A6.987,6.987,0,0,1,91.53,4.545a6.909,6.909,0,0,1,3.4-.785,6.755,6.755,0,0,1,3.945,1.1,7.863,7.863,0,0,1,2.52,2.926,14.512,14.512,0,0,1,1.346,4.04,24.015,24.015,0,0,1,.173,7.734,18.364,18.364,0,0,1-.777,3.358,11.1,11.1,0,0,1-1.485,2.952,7.1,7.1,0,0,1-2.348,2.106A6.822,6.822,0,0,1,94.931,28.757Zm0-2.3a4.191,4.191,0,0,0,2.848-.958,6.265,6.265,0,0,0,1.709-2.494,14.28,14.28,0,0,0,.846-3.314,25.518,25.518,0,0,0,.242-3.435,24.969,24.969,0,0,0-.268-3.668,13.574,13.574,0,0,0-.9-3.3,5.963,5.963,0,0,0-1.718-2.374A4.755,4.755,0,0,0,92.074,7a6.289,6.289,0,0,0-1.726,2.5,14.145,14.145,0,0,0-.854,3.332,25.579,25.579,0,0,0-.242,3.427,25.321,25.321,0,0,0,.268,3.686,12.916,12.916,0,0,0,.906,3.289,5.989,5.989,0,0,0,1.744,2.348A4.292,4.292,0,0,0,94.931,26.461Zm13.482,1.882a11.653,11.653,0,0,1,.613-3.97,10.078,10.078,0,0,1,1.675-2.986,13.66,13.66,0,0,1,2.434-2.313q1.372-1.019,2.84-1.9,1.433-.88,2.684-1.813a8.372,8.372,0,0,0,2.02-2.1,4.826,4.826,0,0,0,.768-2.719,4.267,4.267,0,0,0-1.347-3.22,5.1,5.1,0,0,0-3.677-1.286A5.514,5.514,0,0,0,112.841,7.1,5.659,5.659,0,0,0,111,9.906l-2.175-.984a7,7,0,0,1,2.693-3.694,8.232,8.232,0,0,1,4.972-1.467,8.643,8.643,0,0,1,4.005.863,6.122,6.122,0,0,1,2.564,2.4,6.972,6.972,0,0,1,.889,3.556,6.819,6.819,0,0,1-.967,3.72,10.028,10.028,0,0,1-2.538,2.693A38.818,38.818,0,0,1,117.1,19.21a27.968,27.968,0,0,0-2.857,1.951A9.607,9.607,0,0,0,112.2,23.3a6.174,6.174,0,0,0-.993,2.676h12.947v2.365Zm28.328.414a8.636,8.636,0,0,1-4.972-1.407,8.551,8.551,0,0,1-3.125-4.083l2.261-.915a5.968,5.968,0,0,0,5.835,4.074,6.049,6.049,0,0,0,4.048-1.269,4.264,4.264,0,0,0,1.493-3.427,4.511,4.511,0,0,0-1.407-3.53,5.629,5.629,0,0,0-3.91-1.269h-1.588v-2.3h1.295a4.742,4.742,0,0,0,3.384-1.2,4.1,4.1,0,0,0,1.277-3.133,4.025,4.025,0,0,0-1.243-3.081,4.553,4.553,0,0,0-3.245-1.165,5.33,5.33,0,0,0-3,.88,6.1,6.1,0,0,0-2.132,2.538l-2.261-.863a7.606,7.606,0,0,1,2.909-3.556,7.994,7.994,0,0,1,4.48-1.295,7.788,7.788,0,0,1,3.625.82,6.33,6.33,0,0,1,2.495,2.244,5.9,5.9,0,0,1,.906,3.237,6.085,6.085,0,0,1-.9,3.254,5.669,5.669,0,0,1-2.486,2.2,6.044,6.044,0,0,1,3.185,2.279,6.522,6.522,0,0,1,1.148,3.867,6.662,6.662,0,0,1-1.027,3.686,7.022,7.022,0,0,1-2.848,2.5A9.317,9.317,0,0,1,136.742,28.757Z" transform="translate(981.144 178.833)" fill="#90a6b7"/>
  </g>
</svg>
