<svg xmlns="http://www.w3.org/2000/svg" width="466.783" height="128.489" viewBox="0 0 466.783 128.489">
  <g id="Group_5767" data-name="Group 5767" transform="translate(-450 -236)">
    <g id="Group_5766" data-name="Group 5766">
      <path id="Path_163" data-name="Path 163" d="M23.907,11.85H20.719V-1.484H5.49V11.85H2.3V-17.2H5.49V-4.372H20.719V-17.2h3.188Zm29.969,0H50.332L47.181,3.6H34.728L31.784,11.85H28.221L39.4-17.2h3.244ZM46.093.672,41.442-11.874a13.6,13.6,0,0,1-.431-1.913h-.094a9.2,9.2,0,0,1-.469,1.913L35.854.672ZM78.782,11.85H74.956L70.08,3.673A10.439,10.439,0,0,0,67.248.232a5.413,5.413,0,0,0-2.982-.816H61.4V11.85H58.209V-17.2h8.552a9.355,9.355,0,0,1,6.358,2.054,7.121,7.121,0,0,1,2.363,5.673q0,6.02-6.433,7.821v.075A5.819,5.819,0,0,1,71.027-.209a25.659,25.659,0,0,1,2.335,3.338ZM61.4-14.237v10.69h4.745a6.093,6.093,0,0,0,4.313-1.547,5.345,5.345,0,0,0,1.669-4.117,4.655,4.655,0,0,0-1.519-3.695,6.524,6.524,0,0,0-4.426-1.332ZM82.871,11.85V-17.2h8.121a8.893,8.893,0,0,1,5.833,1.819,5.928,5.928,0,0,1,2.213,4.82,7.2,7.2,0,0,1-1.3,4.276,7.19,7.19,0,0,1-3.685,2.644v.075a7.1,7.1,0,0,1,4.679,2.175A6.9,6.9,0,0,1,100.5,3.523a7.6,7.6,0,0,1-2.654,6.011,9.827,9.827,0,0,1-6.7,2.316Zm3.188-26.087v9.546h3.526a6.716,6.716,0,0,0,4.5-1.378A4.8,4.8,0,0,0,95.7-9.924q0-4.313-5.626-4.313Zm0,12.49V8.887h4.707a7.056,7.056,0,0,0,4.7-1.435,4.915,4.915,0,0,0,1.7-3.967q0-5.232-7.164-5.232Zm23.593,13.6h-3.188V-17.2h3.188Zm30.963,0H136.6L121.448-11.612a13.487,13.487,0,0,1-.9-1.744h-.113a30.693,30.693,0,0,1,.15,3.9v21.3h-3.207V-17.2h4.238L136.358,6.017q1.125,1.8,1.182,1.988h.075a33.732,33.732,0,0,1-.206-4.37V-17.2h3.207Zm29.257-1.988a19.222,19.222,0,0,1-9.677,2.476A13.1,13.1,0,0,1,150.208,8.3a14.789,14.789,0,0,1-3.816-10.587,15.153,15.153,0,0,1,4.248-11.056,14.411,14.411,0,0,1,10.756-4.342,17.788,17.788,0,0,1,7.933,1.557v3.62A15.12,15.12,0,0,0,161-14.744a10.579,10.579,0,0,0-8.092,3.385,12.411,12.411,0,0,0-3.16,8.824q0,5.551,2.907,8.758a10.239,10.239,0,0,0,7.989,3.207,12.143,12.143,0,0,0,6.02-1.407V-.284h-6.4V-3.21h9.6Zm22.074,1.988H176.68V-17.2h14.61v2.926H179.868v9.884h10.559v2.926H179.868V8.924h12.078Zm26.218,0h-3.826l-4.876-8.177A10.439,10.439,0,0,0,206.63.232a5.413,5.413,0,0,0-2.982-.816h-2.869V11.85h-3.188V-17.2h8.552a9.355,9.355,0,0,1,6.358,2.054,7.121,7.121,0,0,1,2.363,5.673q0,6.02-6.433,7.821v.075a5.819,5.819,0,0,1,1.979,1.369,25.661,25.661,0,0,1,2.335,3.338ZM200.779-14.237v10.69h4.745a6.093,6.093,0,0,0,4.313-1.547,5.345,5.345,0,0,0,1.669-4.117,4.655,4.655,0,0,0-1.519-3.695,6.524,6.524,0,0,0-4.426-1.332Z" transform="translate(448.47 253.688)" fill="#90a6b7"/>
      <path id="Path_143" data-name="Path 143" d="M151.942-24.153a3.655,3.655,0,0,0-3.684-3.607,3.558,3.558,0,0,0-3.416,3.607V5.238L126.223-25.756a3.586,3.586,0,0,0-3.483-2H121.8a3.426,3.426,0,0,0-3.416,3.407V15.325a3.558,3.558,0,0,0,3.416,3.607,3.655,3.655,0,0,0,3.684-3.607V-14.334l18.82,31.261a3.4,3.4,0,0,0,3.349,2h.938a3.354,3.354,0,0,0,3.349-3.34Z" transform="translate(514.55 305.622)" fill="#fff"/>
      <path id="Subtraction_47" data-name="Subtraction 47" d="M56.845,47.226a17.529,17.529,0,0,1-12.006-4.533,15.59,15.59,0,0,1-3.717-5.244,17.092,17.092,0,0,1-1.375-6.854V3.807A3.558,3.558,0,0,1,43.151.2a3.645,3.645,0,0,1,3.675,3.607V30.594a9.7,9.7,0,0,0,10.019,9.819,9.7,9.7,0,0,0,10.02-9.819V15.928L73.945,27.8v2.8a17.082,17.082,0,0,1-1.375,6.854,15.591,15.591,0,0,1-3.717,5.244A17.532,17.532,0,0,1,56.845,47.226Zm-41.014,0A17.81,17.81,0,0,1,5.954,44.4a14.18,14.18,0,0,1-5.62-6.989A3.792,3.792,0,0,1,.61,34.45a2.991,2.991,0,0,1,1.863-1.519,4.648,4.648,0,0,1,1.232-.175A3.548,3.548,0,0,1,7.08,35.2c1.263,2.581,3.4,5.544,8.751,5.544,5.755,0,8.259-3.244,8.684-6.279.233-3.724-2.284-6.31-7.28-7.48l-5.812-1.47c-4.4-1.19-7.572-3.092-9.418-5.653a11.057,11.057,0,0,1-2-6.7A12.223,12.223,0,0,1,4.55,3.624,16.6,16.6,0,0,1,15.164,0,16.444,16.444,0,0,1,23.88,2.121a12.58,12.58,0,0,1,5.11,6.429,3.529,3.529,0,0,1-.113,2.8,2.91,2.91,0,0,1-1.756,1.543,4.163,4.163,0,0,1-1.269.216,3.555,3.555,0,0,1-3.141-2.287A8.158,8.158,0,0,0,15.03,6.681c-3.908,0-7.95,2.374-7.95,6.345,0,2.985,2.011,4.952,6.146,6.012L19.1,20.574c4.519,1.2,7.873,3.085,9.97,5.594a11.135,11.135,0,0,1,2.455,8.7,12.618,12.618,0,0,1-4.793,8.884A17.226,17.226,0,0,1,15.831,47.226Z" transform="translate(695.816 277.428)" fill="#fff" stroke="rgba(0,0,0,0)" stroke-miterlimit="10" stroke-width="1"/>
      <path id="Path_146" data-name="Path 146" d="M135.081-24.153a3.649,3.649,0,0,0-3.674-3.607A3.554,3.554,0,0,0,128-24.153V15.325a3.554,3.554,0,0,0,3.407,3.607,3.649,3.649,0,0,0,3.674-3.607Zm20.908,3.34V15.325a3.554,3.554,0,0,0,3.407,3.607,3.65,3.65,0,0,0,3.674-3.607V-20.813H173.69a3.28,3.28,0,0,0,3.34-3.206,3.364,3.364,0,0,0-3.34-3.407H145.367a3.364,3.364,0,0,0-3.34,3.407,3.28,3.28,0,0,0,3.34,3.206Z" transform="translate(739.754 305.388)" fill="#fff"/>
      <path id="Subtraction_48" data-name="Subtraction 48" d="M42.477,46.692c-2.29,0-2.9-1.2-3.187-3.273V23.584L25.912,38.743a4.585,4.585,0,0,1-4.142,2.94,4.579,4.579,0,0,1-4.141-2.94L8.367,19.82,0,1.815A3.271,3.271,0,0,1,2.866,0h.469A3.842,3.842,0,0,1,7.007,2.272L21.77,33.133,38.2,12.291a3.846,3.846,0,0,1,3.674-2.271h.467a3.55,3.55,0,0,1,3.34,3.34l-.2,29.392a3.947,3.947,0,0,1-.88,3.019A2.783,2.783,0,0,1,42.477,46.692Z" transform="translate(763.064 277.228)" fill="#0fd0d6"/>
      <path id="Subtraction_49" data-name="Subtraction 49" d="M4.008,30.65A3.655,3.655,0,0,1,0,27.378V14.924L7.15,0,7.014,26.71a3.946,3.946,0,0,1-.88,3.02A2.783,2.783,0,0,1,4.008,30.65Z" transform="translate(846.229 293.268)" fill="#f2c305"/>
      <path id="Subtraction_51" data-name="Subtraction 51" d="M21.769,41.683a4.584,4.584,0,0,1-4.141-2.94L8.367,19.821,0,1.816A3.272,3.272,0,0,1,2.866,0h.469A3.839,3.839,0,0,1,7.007,2.272l14.762,30.86L36.531,2.272A3.848,3.848,0,0,1,40.206,0h.469a3.379,3.379,0,0,1,3.052,2.212l-5.482,11.8.026-.517L25.911,38.743A4.582,4.582,0,0,1,21.769,41.683Z" transform="translate(809.429 277.628)" fill="#f2c305"/>
      <path id="Subtraction_53" data-name="Subtraction 53" d="M0,48.428H0V0a24.3,24.3,0,0,1,15.44,7.889,24.271,24.271,0,0,1,4.6,7.427,24.241,24.241,0,0,1,1.677,8.9,24.241,24.241,0,0,1-1.677,8.9,24.271,24.271,0,0,1-4.6,7.427A24.3,24.3,0,0,1,0,48.428Z" transform="translate(463.244 277.228)" fill="#12d7d6"/>
      <path id="Path_154" data-name="Path 154" d="M53.134,9.527c2,5.544,7.815,9.819,15.5,9.819,8.817,0,15.03-5.143,15.7-12.358C85.063.375,81.189-4.835,71.9-7.306L66.026-8.843c-5.477-1.4-6.145-4.208-6.145-6.012,0-3.807,3.741-6.346,7.949-6.346a8.155,8.155,0,0,1,7.682,4.141c.935,1.8,2.338,2.739,4.409,2.071a3.278,3.278,0,0,0,1.87-4.342c-2.2-5.745-6.813-8.55-13.827-8.55C59.881-27.88,52.8-22.6,52.8-14.721c0,4.075,1.536,9.686,11.422,12.358l5.811,1.47c4.275,1,7.548,3.206,7.281,7.481-.468,3.34-3.273,6.279-8.684,6.279-4.943,0-7.281-2.538-8.751-5.544a3.6,3.6,0,0,0-4.609-2.271A3.5,3.5,0,0,0,53.134,9.527Zm46.892-33.6a3.65,3.65,0,0,0-3.674-3.607,3.554,3.554,0,0,0-3.407,3.607V15.405a3.554,3.554,0,0,0,3.407,3.607,3.65,3.65,0,0,0,3.674-3.607Z" transform="translate(475.621 305.742)" fill="#fff"/>
      <path id="Path_160" data-name="Path 160" d="M85.591-24.024c0-2.006-1.981-3.736-4.54-3.736a4.042,4.042,0,0,0-4.21,3.736V16.866A4.042,4.042,0,0,0,81.05,20.6c2.559,0,4.54-1.73,4.54-3.736Z" transform="translate(373.16 305.622)" fill="#fff"/>
      <path id="Path_157" data-name="Path 157" d="M8.751,3.736C8.751,1.73,6.769,0,4.21,0A4.042,4.042,0,0,0,0,3.736v17.51a4.042,4.042,0,0,0,4.21,3.736c2.559,0,4.54-1.73,4.54-3.736Z" transform="translate(517.437 317.941) rotate(90)" fill="#f2c305"/>
      <path id="Path_158" data-name="Path 158" d="M8.751,3.736C8.751,1.73,6.769,0,4.21,0A4.042,4.042,0,0,0,0,3.736v17.51a4.042,4.042,0,0,0,4.21,3.736c2.559,0,4.54-1.73,4.54-3.736Z" transform="translate(517.437 297.902) rotate(90)" fill="#f2c305"/>
      <path id="Path_159" data-name="Path 159" d="M8.751,3.736C8.751,1.73,6.769,0,4.21,0A4.042,4.042,0,0,0,0,3.736v17.51a4.042,4.042,0,0,0,4.21,3.736c2.559,0,4.54-1.73,4.54-3.736Z" transform="translate(517.437 277.228) rotate(90)" fill="#f2c305"/>
      <path id="Subtraction_52" data-name="Subtraction 52" d="M23.313,47.226A23.03,23.03,0,0,1,6.747,40.321,23.622,23.622,0,0,1,0,23.647,23.726,23.726,0,0,1,6.747,6.913,23,23,0,0,1,23.313,0,23.594,23.594,0,0,1,37.14,4.542a3.287,3.287,0,0,1,1.3,2.308,3.693,3.693,0,0,1-.966,2.9,3.066,3.066,0,0,1-2.322.964,4.636,4.636,0,0,1-2.688-.9,17.051,17.051,0,0,0-9.151-3.006c-9.1,0-16.232,7.394-16.232,16.833A16.477,16.477,0,0,0,22.578,40.4v6.63h4.093A27.8,27.8,0,0,1,23.313,47.226Z" transform="translate(583.292 277.228)" fill="#12d7d6" stroke="rgba(0,0,0,0)" stroke-miterlimit="10" stroke-width="1"/>
      <path id="Intersection_20" data-name="Intersection 20" d="M0,0H22.1V21.114Z" transform="translate(606.756 324.649) rotate(-90)" fill="#f2c305"/>
      <path id="Path_31" data-name="Path 31" d="M13.886-16.952a4.279,4.279,0,0,0-1.347-3.355,5.222,5.222,0,0,0-3.623-1.21,6.8,6.8,0,0,0-3.13.775,11.083,11.083,0,0,0-2.758,2v-2.565A8.875,8.875,0,0,1,5.74-23.179a8.7,8.7,0,0,1,3.533-.662,7.661,7.661,0,0,1,5.328,1.8,6.2,6.2,0,0,1,2,4.852,8.753,8.753,0,0,1-1.3,4.718,15.245,15.245,0,0,1-4.2,4.156,43.273,43.273,0,0,0-4.251,3.2A6.55,6.55,0,0,0,5.329-3.176,5.3,5.3,0,0,0,4.885-.918H17.353V1.566H2.013V.485A10.391,10.391,0,0,1,2.6-3.257,9.024,9.024,0,0,1,4.57-6.213a28.685,28.685,0,0,1,4.122-3.35,17.824,17.824,0,0,0,4.057-3.694,6.205,6.205,0,0,0,1.137-3.695Zm6.645,6.532q0-6.613,2.154-10.017a6.927,6.927,0,0,1,6.218-3.4q7.791,0,7.791,12.808,0,6.227-2.138,9.622a6.905,6.905,0,0,1-6.218,3.4,6.416,6.416,0,0,1-5.807-3.259q-2-3.259-2-9.147Zm2.742-.145q0,10.259,5.355,10.259,5.307,0,5.307-10.4,0-10.824-5.178-10.824Q23.273-21.533,23.273-10.564Zm28.906-6.388a4.279,4.279,0,0,0-1.347-3.355,5.222,5.222,0,0,0-3.623-1.21,6.8,6.8,0,0,0-3.13.775,11.083,11.083,0,0,0-2.757,2v-2.565a8.875,8.875,0,0,1,2.71-1.871,8.7,8.7,0,0,1,3.533-.662,7.661,7.661,0,0,1,5.328,1.8,6.2,6.2,0,0,1,2,4.852,8.753,8.753,0,0,1-1.3,4.718,15.245,15.245,0,0,1-4.2,4.156,43.274,43.274,0,0,0-4.251,3.2,6.549,6.549,0,0,0-1.515,1.943,5.3,5.3,0,0,0-.443,2.258H55.647V1.566H40.3V.485A10.391,10.391,0,0,1,40.9-3.257a9.024,9.024,0,0,1,1.968-2.956,28.685,28.685,0,0,1,4.121-3.355,17.824,17.824,0,0,0,4.057-3.694,6.205,6.205,0,0,0,1.137-3.69Zm19.147,0a4.279,4.279,0,0,0-1.347-3.355,5.222,5.222,0,0,0-3.623-1.21,6.8,6.8,0,0,0-3.13.775,11.083,11.083,0,0,0-2.758,2v-2.565a8.875,8.875,0,0,1,2.71-1.871,8.7,8.7,0,0,1,3.533-.662,7.661,7.661,0,0,1,5.328,1.8,6.2,6.2,0,0,1,2,4.851,8.753,8.753,0,0,1-1.3,4.718,15.245,15.245,0,0,1-4.2,4.156,43.271,43.271,0,0,0-4.251,3.2A6.55,6.55,0,0,0,62.77-3.176a5.3,5.3,0,0,0-.443,2.258H74.795V1.566H59.449V.485a10.391,10.391,0,0,1,.588-3.743,9.024,9.024,0,0,1,1.974-2.956,28.685,28.685,0,0,1,4.121-3.355,17.824,17.824,0,0,0,4.057-3.694,6.205,6.205,0,0,0,1.138-3.69Z" transform="translate(831.368 362.498)" fill="#a9a9a9"/>
    </g>
  </g>
</svg>
